<svg version="1.0" preserveAspectRatio="xMidYMid meet" viewBox="10.63125 157.04999623080002 348 60.74999854200001" zoomAndPan="magnify" xmlns:xlink="http://www.w3.org/1999/xlink" xmlns="http://www.w3.org/2000/svg" style="max-height: 500px" width="348" height="60.74999854200001"><defs><g/><clipPath id="0d9734dba9"><path clip-rule="nonzero" d="M 43 184 L 70 184 L 70 210 L 43 210 Z M 43 184"/></clipPath><clipPath id="0da2839547"><path clip-rule="nonzero" d="M 47.042969 209.601562 L 43.695312 206.253906 L 65.828125 184.121094 L 69.171875 187.46875 Z M 47.042969 209.601562"/></clipPath><clipPath id="c6a097ba4f"><path clip-rule="nonzero" d="M 47.042969 209.601562 L 43.695312 206.253906 L 65.828125 184.121094 L 69.171875 187.46875 Z M 47.042969 209.601562"/></clipPath><clipPath id="bfbaa0854c"><path clip-rule="nonzero" d="M 18 189 L 44 189 L 44 216 L 18 216 Z M 18 189"/></clipPath><clipPath id="05e7f65f02"><path clip-rule="nonzero" d="M 18.054688 193.050781 L 21.398438 189.707031 L 43.703125 212.007812 L 40.355469 215.355469 Z M 18.054688 193.050781"/></clipPath><clipPath id="66af129594"><path clip-rule="nonzero" d="M 18.054688 193.050781 L 21.398438 189.707031 L 43.695312 212 L 40.347656 215.347656 Z M 18.054688 193.050781"/></clipPath><clipPath id="05f6b0665d"><path clip-rule="nonzero" d="M 12 164 L 39 164 L 39 191 L 12 191 Z M 12 164"/></clipPath><clipPath id="d4c9dcff82"><path clip-rule="nonzero" d="M 35.148438 164.847656 L 38.496094 168.195312 L 16.101562 190.589844 L 12.753906 187.242188 Z M 35.148438 164.847656"/></clipPath><clipPath id="99c00b95ba"><path clip-rule="nonzero" d="M 35.148438 164.847656 L 38.496094 168.195312 L 16.105469 190.585938 L 12.757812 187.238281 Z M 35.148438 164.847656"/></clipPath><clipPath id="27fbe90157"><path clip-rule="nonzero" d="M 37 159 L 64 159 L 64 186 L 37 186 Z M 37 159"/></clipPath><clipPath id="67097189fe"><path clip-rule="nonzero" d="M 63.253906 181.871094 L 59.90625 185.214844 L 37.667969 162.980469 L 41.015625 159.632812 Z M 63.253906 181.871094"/></clipPath><clipPath id="f9b88696e1"><path clip-rule="nonzero" d="M 63.253906 181.871094 L 59.90625 185.214844 L 37.675781 162.988281 L 41.023438 159.640625 Z M 63.253906 181.871094"/></clipPath><clipPath id="9afed496e0"><path clip-rule="nonzero" d="M 30 197 L 52 197 L 52 197.953125 L 30 197.953125 Z M 30 197"/></clipPath><clipPath id="a5de5c0ab4"><path clip-rule="nonzero" d="M 39 174.394531 L 43 174.394531 L 43 178 L 39 178 Z M 39 174.394531"/></clipPath><clipPath id="959858513c"><path clip-rule="nonzero" d="M 29.121094 177 L 40 177 L 40 192 L 29.121094 192 Z M 29.121094 177"/></clipPath><clipPath id="0737939715"><path clip-rule="nonzero" d="M 42 177 L 52.683594 177 L 52.683594 192 L 42 192 Z M 42 177"/></clipPath></defs><g clip-path="url(#0d9734dba9)"><g clip-path="url(#0da2839547)"><g clip-path="url(#c6a097ba4f)"><path fill-rule="nonzero" fill-opacity="1" d="M 47.042969 209.601562 L 43.695312 206.253906 L 65.828125 184.121094 L 69.171875 187.46875 Z M 47.042969 209.601562" fill="#ffffff"/></g></g></g><g clip-path="url(#bfbaa0854c)"><g clip-path="url(#05e7f65f02)"><g clip-path="url(#66af129594)"><path fill-rule="nonzero" fill-opacity="1" d="M 18.054688 193.050781 L 21.398438 189.707031 L 43.703125 212.007812 L 40.355469 215.355469 Z M 18.054688 193.050781" fill="#ffffff"/></g></g></g><g clip-path="url(#05f6b0665d)"><g clip-path="url(#d4c9dcff82)"><g clip-path="url(#99c00b95ba)"><path fill-rule="nonzero" fill-opacity="1" d="M 35.148438 164.847656 L 38.496094 168.195312 L 16.101562 190.589844 L 12.753906 187.242188 Z M 35.148438 164.847656" fill="#ffffff"/></g></g></g><g clip-path="url(#27fbe90157)"><g clip-path="url(#67097189fe)"><g clip-path="url(#f9b88696e1)"><path fill-rule="nonzero" fill-opacity="1" d="M 63.253906 181.871094 L 59.90625 185.214844 L 37.683594 162.992188 L 41.027344 159.644531 Z M 63.253906 181.871094" fill="#ffffff"/></g></g></g><g clip-path="url(#9afed496e0)"><path fill-rule="nonzero" fill-opacity="1" d="M 50.304688 197.078125 L 31.675781 197.078125 C 31.308594 197.078125 30.980469 197.324219 30.878906 197.675781 L 30.746094 198.132812 L 51.234375 198.132812 L 51.101562 197.675781 C 51 197.324219 50.671875 197.078125 50.304688 197.078125 Z M 50.304688 197.078125" fill="#ffffff"/></g><path fill-rule="nonzero" fill-opacity="1" d="M 40.367188 178.015625 L 41.617188 178.015625 L 41.617188 178.667969 L 40.367188 178.667969 Z M 40.367188 178.015625" fill="#ffffff"/><g clip-path="url(#a5de5c0ab4)"><path fill-rule="nonzero" fill-opacity="1" d="M 41.722656 177.625 C 42.035156 177.285156 42.21875 176.757812 42.21875 176.191406 C 42.21875 175.199219 41.667969 174.394531 40.992188 174.394531 C 40.3125 174.394531 39.761719 175.199219 39.761719 176.191406 C 39.761719 176.757812 39.945312 177.285156 40.257812 177.625 Z M 41.722656 177.625" fill="#ffffff"/></g><path fill-rule="nonzero" fill-opacity="1" d="M 40.367188 179.058594 L 41.617188 179.058594 L 41.617188 194.109375 L 40.367188 194.109375 Z M 40.367188 179.058594" fill="#ffffff"/><path fill-rule="nonzero" fill-opacity="1" d="M 35.828125 195.640625 C 35.46875 195.640625 35.144531 195.882812 35.042969 196.230469 L 34.910156 196.6875 L 47.070312 196.6875 L 46.9375 196.230469 C 46.835938 195.882812 46.515625 195.640625 46.152344 195.640625 Z M 35.828125 195.640625" fill="#ffffff"/><path fill-rule="nonzero" fill-opacity="1" d="M 40.171875 194.5 L 37.984375 194.5 L 37.984375 195.253906 L 43.996094 195.253906 L 43.996094 194.5 Z M 40.171875 194.5" fill="#ffffff"/><g clip-path="url(#959858513c)"><path fill-rule="nonzero" fill-opacity="1" d="M 37.429688 188.941406 L 36.484375 188.941406 L 34.414062 180.851562 C 34.585938 180.878906 34.757812 180.898438 34.925781 180.898438 C 35.714844 180.898438 36.324219 180.664062 36.914062 180.433594 C 37.378906 180.253906 37.820312 180.082031 38.292969 180.066406 C 38.984375 180.042969 39.617188 180.351562 39.976562 180.574219 L 39.976562 178.996094 C 39.6875 178.898438 38.820312 178.640625 38.042969 178.773438 C 37.636719 178.84375 37.246094 179.054688 36.832031 179.277344 C 36.25 179.589844 35.652344 179.910156 34.925781 179.910156 C 34.085938 179.910156 33.621094 179.617188 33.390625 179.402344 C 33.3125 179.492188 33.21875 179.570312 33.113281 179.632812 C 33.019531 179.683594 32.902344 179.652344 32.847656 179.558594 C 32.792969 179.464844 32.828125 179.347656 32.917969 179.292969 C 33.144531 179.164062 33.285156 178.925781 33.285156 178.667969 C 33.285156 178.269531 32.960938 177.945312 32.5625 177.945312 C 32.164062 177.945312 31.839844 178.269531 31.839844 178.667969 C 31.839844 179.050781 32.0625 179.449219 32.414062 179.804688 L 30.078125 188.941406 L 29.132812 188.941406 C 29.285156 190.359375 31.085938 191.480469 33.28125 191.480469 C 35.476562 191.480469 37.277344 190.359375 37.429688 188.941406 Z M 36.078125 188.941406 L 33.476562 188.941406 L 33.476562 180.542969 C 33.640625 180.621094 33.8125 180.6875 33.984375 180.742188 Z M 33.085938 180.335938 L 33.085938 188.941406 L 30.484375 188.941406 L 32.742188 180.097656 C 32.851562 180.179688 32.964844 180.261719 33.085938 180.335938 Z M 33.085938 180.335938" fill="#ffffff"/></g><g clip-path="url(#0737939715)"><path fill-rule="nonzero" fill-opacity="1" d="M 51.902344 188.941406 L 49.566406 179.808594 C 49.917969 179.449219 50.140625 179.050781 50.140625 178.667969 C 50.140625 178.269531 49.816406 177.945312 49.417969 177.945312 C 49.019531 177.945312 48.699219 178.269531 48.699219 178.667969 C 48.699219 178.925781 48.835938 179.164062 49.0625 179.292969 C 49.15625 179.347656 49.1875 179.464844 49.132812 179.558594 C 49.082031 179.652344 48.960938 179.683594 48.867188 179.632812 C 48.761719 179.570312 48.667969 179.492188 48.589844 179.402344 C 48.363281 179.617188 47.894531 179.910156 47.058594 179.910156 C 46.328125 179.910156 45.730469 179.589844 45.152344 179.277344 C 44.734375 179.054688 44.34375 178.84375 43.9375 178.773438 C 43.160156 178.640625 42.292969 178.898438 42.003906 178.996094 L 42.003906 180.574219 C 42.367188 180.351562 42.996094 180.046875 43.6875 180.066406 C 44.160156 180.082031 44.601562 180.253906 45.070312 180.433594 C 45.65625 180.664062 46.265625 180.898438 47.054688 180.898438 C 47.222656 180.898438 47.394531 180.878906 47.566406 180.851562 L 45.5 188.941406 L 44.550781 188.941406 C 44.703125 190.359375 46.503906 191.480469 48.699219 191.480469 C 50.894531 191.480469 52.695312 190.359375 52.847656 188.941406 Z M 49.238281 180.097656 L 51.496094 188.941406 L 48.894531 188.941406 L 48.894531 180.335938 C 49.015625 180.261719 49.128906 180.179688 49.238281 180.097656 Z M 48.503906 180.542969 L 48.503906 188.941406 L 45.902344 188.941406 L 47.996094 180.742188 C 48.171875 180.6875 48.339844 180.621094 48.503906 180.542969 Z M 48.503906 180.542969" fill="#ffffff"/></g><g fill-opacity="1" fill="#ffffff"><g transform="translate(78.880286, 202.690065)"><g><path d="M 7.921875 0.25 C 6.242188 0.25 4.691406 -0.109375 3.265625 -0.828125 C 1.835938 -1.554688 0.679688 -2.59375 -0.203125 -3.9375 L 1.640625 -6.03125 C 3.253906 -3.632812 5.363281 -2.4375 7.96875 -2.4375 C 11.59375 -2.4375 13.40625 -4.585938 13.40625 -8.890625 L 13.40625 -26.65625 L 2.6875 -26.65625 L 2.6875 -29.328125 L 16.46875 -29.328125 L 16.46875 -9.015625 C 16.46875 -5.941406 15.75 -3.628906 14.3125 -2.078125 C 12.875 -0.523438 10.742188 0.25 7.921875 0.25 Z M 7.921875 0.25"/></g></g></g><g fill-opacity="1" fill="#ffffff"><g transform="translate(99.871867, 202.690065)"><g><path d="M 24.015625 -22.046875 L 24.015625 0 L 21.15625 0 L 21.15625 -4.015625 C 20.375 -2.679688 19.296875 -1.644531 17.921875 -0.90625 C 16.554688 -0.164062 15 0.203125 13.25 0.203125 C 10.363281 0.203125 8.085938 -0.597656 6.421875 -2.203125 C 4.765625 -3.804688 3.9375 -6.160156 3.9375 -9.265625 L 3.9375 -22.046875 L 6.921875 -22.046875 L 6.921875 -9.546875 C 6.921875 -7.234375 7.488281 -5.472656 8.625 -4.265625 C 9.769531 -3.066406 11.40625 -2.46875 13.53125 -2.46875 C 15.851562 -2.46875 17.679688 -3.171875 19.015625 -4.578125 C 20.359375 -5.992188 21.03125 -7.960938 21.03125 -10.484375 L 21.03125 -22.046875 Z M 24.015625 -22.046875"/></g></g></g><g fill-opacity="1" fill="#ffffff"><g transform="translate(128.070148, 202.690065)"><g><path d="M 7 -17.71875 C 7.695312 -19.207031 8.734375 -20.328125 10.109375 -21.078125 C 11.492188 -21.828125 13.207031 -22.203125 15.25 -22.203125 L 15.25 -19.3125 L 14.546875 -19.359375 C 12.222656 -19.359375 10.40625 -18.644531 9.09375 -17.21875 C 7.78125 -15.800781 7.125 -13.804688 7.125 -11.234375 L 7.125 0 L 4.15625 0 L 4.15625 -22.046875 L 7 -22.046875 Z M 7 -17.71875"/></g></g></g><g fill-opacity="1" fill="#ffffff"><g transform="translate(144.871792, 202.690065)"><g><path d="M 4.15625 -22.046875 L 7.125 -22.046875 L 7.125 0 L 4.15625 0 Z M 5.65625 -26.859375 C 5.039062 -26.859375 4.523438 -27.066406 4.109375 -27.484375 C 3.691406 -27.910156 3.484375 -28.414062 3.484375 -29 C 3.484375 -29.5625 3.691406 -30.050781 4.109375 -30.46875 C 4.523438 -30.882812 5.039062 -31.09375 5.65625 -31.09375 C 6.269531 -31.09375 6.785156 -30.890625 7.203125 -30.484375 C 7.628906 -30.078125 7.84375 -29.597656 7.84375 -29.046875 C 7.84375 -28.429688 7.628906 -27.910156 7.203125 -27.484375 C 6.785156 -27.066406 6.269531 -26.859375 5.65625 -26.859375 Z M 5.65625 -26.859375"/></g></g></g><g fill-opacity="1" fill="#ffffff"><g transform="translate(156.142725, 202.690065)"><g><path d="M 10.0625 0.203125 C 8.269531 0.203125 6.554688 -0.0507812 4.921875 -0.5625 C 3.285156 -1.082031 2.007812 -1.734375 1.09375 -2.515625 L 2.4375 -4.859375 C 3.351562 -4.128906 4.507812 -3.535156 5.90625 -3.078125 C 7.300781 -2.617188 8.753906 -2.390625 10.265625 -2.390625 C 12.273438 -2.390625 13.757812 -2.703125 14.71875 -3.328125 C 15.6875 -3.960938 16.171875 -4.851562 16.171875 -6 C 16.171875 -6.800781 15.90625 -7.429688 15.375 -7.890625 C 14.84375 -8.359375 14.171875 -8.707031 13.359375 -8.9375 C 12.554688 -9.175781 11.484375 -9.410156 10.140625 -9.640625 C 8.347656 -9.972656 6.90625 -10.3125 5.8125 -10.65625 C 4.726562 -11.007812 3.800781 -11.601562 3.03125 -12.4375 C 2.269531 -13.28125 1.890625 -14.441406 1.890625 -15.921875 C 1.890625 -17.765625 2.65625 -19.269531 4.1875 -20.4375 C 5.726562 -21.613281 7.867188 -22.203125 10.609375 -22.203125 C 12.023438 -22.203125 13.445312 -22.015625 14.875 -21.640625 C 16.300781 -21.265625 17.472656 -20.769531 18.390625 -20.15625 L 17.09375 -17.765625 C 15.28125 -19.023438 13.117188 -19.65625 10.609375 -19.65625 C 8.703125 -19.65625 7.265625 -19.316406 6.296875 -18.640625 C 5.335938 -17.972656 4.859375 -17.097656 4.859375 -16.015625 C 4.859375 -15.171875 5.128906 -14.5 5.671875 -14 C 6.222656 -13.5 6.898438 -13.128906 7.703125 -12.890625 C 8.515625 -12.648438 9.632812 -12.40625 11.0625 -12.15625 C 12.820312 -11.820312 14.234375 -11.484375 15.296875 -11.140625 C 16.359375 -10.804688 17.265625 -10.234375 18.015625 -9.421875 C 18.773438 -8.617188 19.15625 -7.503906 19.15625 -6.078125 C 19.15625 -4.148438 18.347656 -2.617188 16.734375 -1.484375 C 15.128906 -0.359375 12.90625 0.203125 10.0625 0.203125 Z M 10.0625 0.203125"/></g></g></g><g fill-opacity="1" fill="#ffffff"><g transform="translate(176.63152, 202.690065)"><g><path d="M 17.515625 0.25 C 14.609375 0.25 11.988281 -0.390625 9.65625 -1.671875 C 7.320312 -2.960938 5.488281 -4.742188 4.15625 -7.015625 C 2.832031 -9.296875 2.171875 -11.847656 2.171875 -14.671875 C 2.171875 -17.492188 2.832031 -20.039062 4.15625 -22.3125 C 5.488281 -24.59375 7.328125 -26.375 9.671875 -27.65625 C 12.023438 -28.9375 14.65625 -29.578125 17.5625 -29.578125 C 19.738281 -29.578125 21.75 -29.210938 23.59375 -28.484375 C 25.4375 -27.765625 27 -26.707031 28.28125 -25.3125 L 26.3125 -23.34375 C 24.019531 -25.65625 21.128906 -26.8125 17.640625 -26.8125 C 15.328125 -26.8125 13.21875 -26.28125 11.3125 -25.21875 C 9.414062 -24.164062 7.925781 -22.71875 6.84375 -20.875 C 5.769531 -19.03125 5.234375 -16.960938 5.234375 -14.671875 C 5.234375 -12.378906 5.769531 -10.3125 6.84375 -8.46875 C 7.925781 -6.625 9.414062 -5.171875 11.3125 -4.109375 C 13.21875 -3.046875 15.328125 -2.515625 17.640625 -2.515625 C 21.160156 -2.515625 24.050781 -3.6875 26.3125 -6.03125 L 28.28125 -4.0625 C 27 -2.664062 25.425781 -1.597656 23.5625 -0.859375 C 21.707031 -0.117188 19.691406 0.25 17.515625 0.25 Z M 17.515625 0.25"/></g></g></g><g fill-opacity="1" fill="#ffffff"><g transform="translate(206.757168, 202.690065)"><g><path d="M 13.15625 0.203125 C 11.03125 0.203125 9.113281 -0.273438 7.40625 -1.234375 C 5.707031 -2.203125 4.367188 -3.535156 3.390625 -5.234375 C 2.410156 -6.941406 1.921875 -8.867188 1.921875 -11.015625 C 1.921875 -13.171875 2.410156 -15.097656 3.390625 -16.796875 C 4.367188 -18.503906 5.707031 -19.832031 7.40625 -20.78125 C 9.113281 -21.726562 11.03125 -22.203125 13.15625 -22.203125 C 15.28125 -22.203125 17.191406 -21.726562 18.890625 -20.78125 C 20.597656 -19.832031 21.929688 -18.503906 22.890625 -16.796875 C 23.859375 -15.097656 24.34375 -13.171875 24.34375 -11.015625 C 24.34375 -8.867188 23.859375 -6.941406 22.890625 -5.234375 C 21.929688 -3.535156 20.597656 -2.203125 18.890625 -1.234375 C 17.191406 -0.273438 15.28125 0.203125 13.15625 0.203125 Z M 13.15625 -2.4375 C 14.71875 -2.4375 16.117188 -2.789062 17.359375 -3.5 C 18.609375 -4.207031 19.582031 -5.21875 20.28125 -6.53125 C 20.976562 -7.84375 21.328125 -9.335938 21.328125 -11.015625 C 21.328125 -12.691406 20.976562 -14.1875 20.28125 -15.5 C 19.582031 -16.8125 18.609375 -17.820312 17.359375 -18.53125 C 16.117188 -19.25 14.71875 -19.609375 13.15625 -19.609375 C 11.59375 -19.609375 10.1875 -19.25 8.9375 -18.53125 C 7.695312 -17.820312 6.71875 -16.8125 6 -15.5 C 5.289062 -14.1875 4.9375 -12.691406 4.9375 -11.015625 C 4.9375 -9.335938 5.289062 -7.84375 6 -6.53125 C 6.71875 -5.21875 7.695312 -4.207031 8.9375 -3.5 C 10.1875 -2.789062 11.59375 -2.4375 13.15625 -2.4375 Z M 13.15625 -2.4375"/></g></g></g><g fill-opacity="1" fill="#ffffff"><g transform="translate(233.028073, 202.690065)"><g><path d="M 15.375 -22.203125 C 18.144531 -22.203125 20.347656 -21.398438 21.984375 -19.796875 C 23.617188 -18.191406 24.4375 -15.851562 24.4375 -12.78125 L 24.4375 0 L 21.453125 0 L 21.453125 -12.484375 C 21.453125 -14.773438 20.878906 -16.519531 19.734375 -17.71875 C 18.585938 -18.925781 16.953125 -19.53125 14.828125 -19.53125 C 12.453125 -19.53125 10.570312 -18.820312 9.1875 -17.40625 C 7.8125 -16 7.125 -14.050781 7.125 -11.5625 L 7.125 0 L 4.15625 0 L 4.15625 -22.046875 L 7 -22.046875 L 7 -17.984375 C 7.8125 -19.316406 8.9375 -20.351562 10.375 -21.09375 C 11.8125 -21.832031 13.476562 -22.203125 15.375 -22.203125 Z M 15.375 -22.203125"/></g></g></g><g fill-opacity="1" fill="#ffffff"><g transform="translate(261.393945, 202.690065)"><g><path d="M 15.375 -22.203125 C 18.144531 -22.203125 20.347656 -21.398438 21.984375 -19.796875 C 23.617188 -18.191406 24.4375 -15.851562 24.4375 -12.78125 L 24.4375 0 L 21.453125 0 L 21.453125 -12.484375 C 21.453125 -14.773438 20.878906 -16.519531 19.734375 -17.71875 C 18.585938 -18.925781 16.953125 -19.53125 14.828125 -19.53125 C 12.453125 -19.53125 10.570312 -18.820312 9.1875 -17.40625 C 7.8125 -16 7.125 -14.050781 7.125 -11.5625 L 7.125 0 L 4.15625 0 L 4.15625 -22.046875 L 7 -22.046875 L 7 -17.984375 C 7.8125 -19.316406 8.9375 -20.351562 10.375 -21.09375 C 11.8125 -21.832031 13.476562 -22.203125 15.375 -22.203125 Z M 15.375 -22.203125"/></g></g></g><g fill-opacity="1" fill="#ffffff"><g transform="translate(289.759807, 202.690065)"><g><path d="M 23.34375 -10.09375 L 4.90625 -10.09375 C 5.070312 -7.800781 5.953125 -5.953125 7.546875 -4.546875 C 9.140625 -3.140625 11.148438 -2.4375 13.578125 -2.4375 C 14.941406 -2.4375 16.195312 -2.675781 17.34375 -3.15625 C 18.488281 -3.644531 19.484375 -4.367188 20.328125 -5.328125 L 22 -3.390625 C 21.019531 -2.222656 19.796875 -1.332031 18.328125 -0.71875 C 16.867188 -0.101562 15.257812 0.203125 13.5 0.203125 C 11.226562 0.203125 9.21875 -0.273438 7.46875 -1.234375 C 5.726562 -2.203125 4.367188 -3.535156 3.390625 -5.234375 C 2.410156 -6.941406 1.921875 -8.867188 1.921875 -11.015625 C 1.921875 -13.171875 2.390625 -15.097656 3.328125 -16.796875 C 4.265625 -18.503906 5.550781 -19.832031 7.1875 -20.78125 C 8.820312 -21.726562 10.660156 -22.203125 12.703125 -22.203125 C 14.734375 -22.203125 16.5625 -21.726562 18.1875 -20.78125 C 19.8125 -19.832031 21.082031 -18.515625 22 -16.828125 C 22.925781 -15.140625 23.390625 -13.203125 23.390625 -11.015625 Z M 12.703125 -19.65625 C 10.578125 -19.65625 8.796875 -18.976562 7.359375 -17.625 C 5.921875 -16.269531 5.101562 -14.503906 4.90625 -12.328125 L 20.53125 -12.328125 C 20.332031 -14.503906 19.515625 -16.269531 18.078125 -17.625 C 16.640625 -18.976562 14.847656 -19.65625 12.703125 -19.65625 Z M 12.703125 -19.65625"/></g></g></g><g fill-opacity="1" fill="#ffffff"><g transform="translate(315.067018, 202.690065)"><g><path d="M 13.28125 0.203125 C 11.101562 0.203125 9.15625 -0.269531 7.4375 -1.21875 C 5.71875 -2.164062 4.367188 -3.5 3.390625 -5.21875 C 2.410156 -6.9375 1.921875 -8.867188 1.921875 -11.015625 C 1.921875 -13.171875 2.410156 -15.097656 3.390625 -16.796875 C 4.367188 -18.503906 5.71875 -19.832031 7.4375 -20.78125 C 9.15625 -21.726562 11.101562 -22.203125 13.28125 -22.203125 C 15.1875 -22.203125 16.882812 -21.832031 18.375 -21.09375 C 19.875 -20.351562 21.054688 -19.273438 21.921875 -17.859375 L 19.703125 -16.34375 C 18.972656 -17.4375 18.046875 -18.253906 16.921875 -18.796875 C 15.804688 -19.335938 14.59375 -19.609375 13.28125 -19.609375 C 11.6875 -19.609375 10.253906 -19.25 8.984375 -18.53125 C 7.710938 -17.820312 6.71875 -16.8125 6 -15.5 C 5.289062 -14.1875 4.9375 -12.691406 4.9375 -11.015625 C 4.9375 -9.316406 5.289062 -7.816406 6 -6.515625 C 6.71875 -5.210938 7.710938 -4.207031 8.984375 -3.5 C 10.253906 -2.789062 11.6875 -2.4375 13.28125 -2.4375 C 14.59375 -2.4375 15.804688 -2.695312 16.921875 -3.21875 C 18.046875 -3.75 18.972656 -4.5625 19.703125 -5.65625 L 21.921875 -4.15625 C 21.054688 -2.726562 19.867188 -1.644531 18.359375 -0.90625 C 16.847656 -0.164062 15.15625 0.203125 13.28125 0.203125 Z M 13.28125 0.203125"/></g></g></g><g fill-opacity="1" fill="#ffffff"><g transform="translate(338.656352, 202.690065)"><g><path d="M 15.75 -1.34375 C 15.195312 -0.84375 14.507812 -0.457031 13.6875 -0.1875 C 12.863281 0.0703125 12.003906 0.203125 11.109375 0.203125 C 9.035156 0.203125 7.441406 -0.351562 6.328125 -1.46875 C 5.210938 -2.582031 4.65625 -4.160156 4.65625 -6.203125 L 4.65625 -19.53125 L 0.71875 -19.53125 L 0.71875 -22.046875 L 4.65625 -22.046875 L 4.65625 -26.859375 L 7.625 -26.859375 L 7.625 -22.046875 L 14.328125 -22.046875 L 14.328125 -19.53125 L 7.625 -19.53125 L 7.625 -6.375 C 7.625 -5.0625 7.953125 -4.0625 8.609375 -3.375 C 9.265625 -2.6875 10.207031 -2.34375 11.4375 -2.34375 C 12.050781 -2.34375 12.644531 -2.441406 13.21875 -2.640625 C 13.789062 -2.835938 14.285156 -3.117188 14.703125 -3.484375 Z M 15.75 -1.34375"/></g></g></g></svg>